<svg width="25" height="24" viewBox="0 0 25 24" fill="none" xmlns="http://www.w3.org/2000/svg">
<path d="M12.75 2.16225C15.954 2.16225 16.3335 2.17462 17.5991 2.23238C18.9649 2.29463 20.232 2.568 21.207 3.54338C22.182 4.51837 22.4554 5.7855 22.518 7.15125C22.5758 8.4165 22.5881 8.796 22.5881 12.0004C22.5881 15.2048 22.5758 15.5839 22.518 16.8495C22.4557 18.2153 22.1824 19.4824 21.207 20.4574C20.232 21.4324 18.9645 21.7057 17.5991 21.7684C16.3339 21.8261 15.9544 21.8385 12.75 21.8385C9.54562 21.8385 9.16613 21.8261 7.90088 21.7684C6.53513 21.7061 5.268 21.4328 4.293 20.4574C3.318 19.4824 3.04463 18.2153 2.982 16.8495C2.92425 15.5835 2.91225 15.204 2.91225 12C2.91225 8.796 2.92462 8.4165 2.98238 7.15088C3.04463 5.78513 3.318 4.518 4.29338 3.543C5.26837 2.568 6.5355 2.29463 7.90125 2.232C9.1665 2.17425 9.546 2.16225 12.75 2.16225ZM12.75 0C9.49088 0 9.0825 0.013875 7.80225 0.072375C5.85225 0.16125 4.13925 0.639 2.76375 2.01412C1.38937 3.38888 0.91125 5.1015 0.822375 7.05225C0.763875 8.3325 0.75 8.74088 0.75 12C0.75 15.2591 0.763875 15.6675 0.822375 16.9478C0.91125 18.8978 1.389 20.6108 2.76412 21.9862C4.13888 23.361 5.85187 23.8391 7.80262 23.928C9.0825 23.9861 9.49088 24 12.75 24C16.0091 24 16.4175 23.9861 17.6978 23.9276C19.6474 23.8387 21.3608 23.361 22.7362 21.9859C24.111 20.6111 24.5891 18.8981 24.678 16.9474C24.7361 15.6675 24.75 15.2591 24.75 12C24.75 8.74088 24.7361 8.3325 24.6776 7.05225C24.5887 5.10225 24.111 3.38925 22.7359 2.01375C21.3611 0.639 19.6481 0.160875 17.6974 0.072C16.4175 0.013875 16.0091 0 12.75 0Z" fill="#716C57"/>
<path d="M12.7499 5.83789C9.34677 5.83789 6.58789 8.59677 6.58789 11.9999C6.58789 15.403 9.34677 18.1619 12.7499 18.1619C16.153 18.1619 18.9119 15.403 18.9119 11.9999C18.9119 8.59677 16.153 5.83789 12.7499 5.83789ZM12.7499 16C10.5408 16 8.74977 14.209 8.74977 11.9999C8.74977 9.79077 10.5408 7.99977 12.7499 7.99977C14.959 7.99977 16.75 9.79077 16.75 11.9999C16.75 14.209 14.959 16 12.7499 16Z" fill="#716C57"/>
<path d="M19.1558 7.0343C19.9511 7.0343 20.5958 6.38959 20.5958 5.5943C20.5958 4.79901 19.9511 4.1543 19.1558 4.1543C18.3605 4.1543 17.7158 4.79901 17.7158 5.5943C17.7158 6.38959 18.3605 7.0343 19.1558 7.0343Z" fill="#716C57"/>
</svg>
