<svg width="25" height="24" viewBox="0 0 25 24" fill="none" xmlns="http://www.w3.org/2000/svg">
<path d="M23.75 0H1.75C1.15 0 0.75 0.4 0.75 1V23C0.75 23.6 1.15 24 1.75 24H23.75C24.35 24 24.75 23.6 24.75 23V1C24.75 0.4 24.35 0 23.75 0ZM7.85 20.5H4.35V9H7.95V20.5H7.85ZM6.05 7.4C4.95 7.4 3.95 6.5 3.95 5.3C3.95 4.2 4.85 3.2 6.05 3.2C7.15 3.2 8.15 4.1 8.15 5.3C8.15 6.5 7.25 7.4 6.05 7.4ZM21.25 20.5H17.65V14.9C17.65 13.6 17.65 11.9 15.85 11.9C13.95 11.9 13.75 13.3 13.75 14.8V20.5H10.15V9H13.55V10.6C14.05 9.7 15.15 8.8 16.95 8.8C20.55 8.8 21.25 11.2 21.25 14.3V20.5Z" fill="#716C57"/>
</svg>
