<svg width="160" height="37" viewBox="0 0 160 37" fill="none" xmlns="http://www.w3.org/2000/svg">
<path d="M0 26.6698V24.8029L3.15603 24.0362L4.18589 5.9007L1.26241 5.20062L1.32885 3.33373H9.56775L16.4114 19.2356L23.5207 3.33373H31.5603V5.20062L28.6036 5.9007L29.7663 24.0695L32.9556 24.8029V26.6698H21.2949V24.8029L24.2184 24.1029L23.3214 10.1012L15.8798 26.8365H13.7204L6.51139 10.0012L5.74729 24.1029L8.704 24.8029V26.6698H0Z" fill="#1F1D14"/>
<path d="M32.0747 11.7681V10.0012H42.3401V11.7681L40.1475 12.1681L44.433 20.7358L47.5558 12.4015L45.031 11.7681V10.0012H52.7384V11.7681L49.981 12.5348L40.7122 36.6377H40.1143C39.4498 36.6377 38.8186 36.4932 38.2206 36.2043C37.6448 35.9154 37.2351 35.5598 36.9915 35.1375L41.8086 27.4366L34.5663 12.4681L32.0747 11.7681Z" fill="#1F1D14"/>
<path d="M54.5749 25.603V19.469H56.4353L58.1296 24.1362C59.0598 24.4696 60.2225 24.6363 61.6178 24.6363C63.1239 24.6363 64.4195 24.3696 65.5047 23.8362C66.6121 23.3028 67.1658 22.5138 67.1658 21.4692C67.1658 21.2247 67.1326 20.9914 67.0661 20.7691C67.0218 20.5469 66.9332 20.3357 66.8004 20.1357C66.6675 19.9357 66.5346 19.7579 66.4017 19.6023C66.2688 19.4245 66.0695 19.2467 65.8037 19.0689C65.5379 18.8689 65.3054 18.7133 65.1061 18.6022C64.9067 18.4689 64.6077 18.3022 64.2091 18.1021C63.8326 17.9021 63.1571 17.5687 62.1826 17.102L60.9866 16.5353C58.794 15.4685 57.2215 14.3573 56.2692 13.2016C55.3168 12.0236 54.8407 10.579 54.8407 8.86772C54.8407 7.04528 55.5937 5.58955 57.0997 4.50053C58.6058 3.38929 60.5547 2.83367 62.9467 2.83367C65.6265 2.83367 68.0406 3.17815 70.1889 3.86713V10.0012H68.3285L66.7007 5.53399C65.7926 5.33397 64.9178 5.23395 64.0762 5.23395C62.7695 5.23395 61.6511 5.46732 60.7209 5.93404C59.7907 6.37853 59.3256 7.03417 59.3256 7.90094C59.3256 8.67881 59.691 9.33444 60.4219 9.86784C61.1749 10.379 62.5037 11.0569 64.4084 11.9014L65.0728 12.2014C67.3319 13.2238 68.993 14.3573 70.056 15.6019C71.1191 16.8464 71.6507 18.3577 71.6507 20.1357C71.6507 21.8026 71.2299 23.1694 70.3883 24.2362C69.5688 25.2808 68.4836 26.0364 67.1326 26.5031C65.7816 26.9476 64.2423 27.1699 62.5148 27.1699C59.7685 27.1699 57.1219 26.6476 54.5749 25.603Z" fill="#1F1D14"/>
<path d="M71.4693 11.7681V10.0012H81.7347V11.7681L79.5421 12.1681L83.8276 20.7358L86.9504 12.4015L84.4256 11.7681V10.0012H92.1329V11.7681L89.3756 12.5348L80.1068 36.6377H79.5088C78.8444 36.6377 78.2132 36.4932 77.6152 36.2043C77.0394 35.9154 76.6296 35.5598 76.386 35.1375L81.2031 27.4366L73.9609 12.4681L71.4693 11.7681Z" fill="#1F1D14"/>
<path d="M93.1721 26.6698V24.903L95.996 24.2362V13.0349H93.1721V11.268L98.4876 10.0012H101.112V11.6347C102.463 10.2123 104.135 9.50113 106.128 9.50113C106.992 9.50113 107.767 9.63447 108.454 9.90117C109.163 10.1456 109.75 10.5012 110.215 10.968C110.702 11.4347 111.078 11.9903 111.344 12.6348C111.61 13.2794 111.743 13.9794 111.743 14.7351V24.2362L114.567 24.903V26.6698H104.467V24.903L106.627 24.2362V15.6685C106.627 14.9796 106.582 14.4239 106.494 14.0017C106.427 13.5794 106.306 13.2571 106.128 13.0349C105.951 12.7904 105.708 12.6348 105.398 12.5682C105.11 12.4793 104.744 12.4348 104.301 12.4348C103.46 12.4348 102.397 12.9238 101.112 13.9016V24.2362L103.271 24.903V26.6698H93.1721Z" fill="#1F1D14"/>
<path d="M113.958 18.9356C113.958 15.9352 114.899 13.6127 116.781 11.9681C118.686 10.3234 121 9.50113 123.725 9.50113C124.411 9.50113 125.053 9.5678 125.651 9.70115V3.03369H122.828V1.26682L128.143 0H130.801V24.1695H133.392V25.603C133.259 25.7142 133.071 25.8586 132.827 26.0364C132.606 26.2142 132.152 26.4476 131.465 26.7365C130.779 27.0254 130.125 27.1699 129.505 27.1699C128.575 27.1699 127.789 26.9476 127.146 26.5031C126.526 26.0586 126.083 25.5808 125.818 25.0696C124.599 26.4698 123.104 27.1699 121.333 27.1699C119.317 27.1699 117.579 26.4698 116.117 25.0696C114.677 23.6472 113.958 21.6026 113.958 18.9356ZM119.207 18.8022C119.207 20.6247 119.594 22.0026 120.369 22.9361C121.167 23.8695 121.953 24.3362 122.728 24.3362C123.835 24.3362 124.81 23.9251 125.651 23.1027V11.9014C125.031 11.7458 124.489 11.6681 124.024 11.6681C122.562 11.6681 121.388 12.257 120.502 13.4349C119.638 14.5906 119.207 16.3797 119.207 18.8022Z" fill="#1F1D14"/>
<path d="M134.515 26.6698V24.903L137.338 24.2362V13.0349H134.515V11.268L139.83 10.0012H142.454V24.2362L145.278 24.903V26.6698H134.515ZM136.807 4.86724C136.807 4.00047 137.106 3.27817 137.704 2.70032C138.302 2.10025 139.033 1.80021 139.896 1.80021C140.782 1.80021 141.513 2.10025 142.089 2.70032C142.687 3.27817 142.986 4.00047 142.986 4.86724C142.986 5.75624 142.687 6.50077 142.089 7.10084C141.513 7.70091 140.782 8.00095 139.896 8.00095C139.033 8.00095 138.302 7.70091 137.704 7.10084C137.106 6.50077 136.807 5.75624 136.807 4.86724Z" fill="#1F1D14"/>
<path d="M145.416 18.2688C145.416 15.6908 146.257 13.5905 147.941 11.9681C149.646 10.3234 151.65 9.50113 153.954 9.50113C155.881 9.50113 157.774 9.96785 159.635 10.9013C159.568 12.746 158.76 14.1017 157.209 14.9684L154.352 11.6681H154.153C153.223 11.9347 152.403 12.6237 151.695 13.735C150.986 14.824 150.632 16.3575 150.632 18.3355C150.609 20.558 151.108 22.2249 152.127 23.3361C153.079 24.2473 154.319 24.7029 155.847 24.7029C156.49 24.7029 157.11 24.6474 157.708 24.5362C158.328 24.4251 158.959 24.2695 159.601 24.0695L160 26.0364C158.206 26.7921 156.368 27.1699 154.485 27.1699C151.983 27.1699 149.845 26.3698 148.074 24.7696C146.302 23.1694 145.416 21.0025 145.416 18.2688Z" fill="#1F1D14"/>
</svg>
